<?xml version="1.0" encoding="UTF-8" standalone="no"?> <svg width="64" height="64" viewBox="0 0 64 64" fill="none" xmlns="http://www.w3.org/2000/svg">
<path d="M55 7C52.71 7 50.56 8.14 49.26 10H47V9C47 7.35 45.65 6 44 6C43.24 6 42.53 6.29 42 6.77C41.47 6.29 40.76 6 40 6C39.24 6 38.53 6.29 38 6.77C37.47 6.29 36.76 6 36 6C35.24 6 34.53 6.29 34 6.77C33.47 6.29 32.76 6 32 6C30.35 6 29 7.35 29 9V9.69C28.07 9.01 26.99 8.81 25.98 9.18C25.51 9.35 25.1 9.64 24.77 10H19.93C19.44 6.61 16.52 4 13 4H8.99998C5.13998 4 1.99998 7.14 1.99998 11C1.99998 11.55 2.44998 12 2.99998 12H12V16H2.99998C2.44998 16 1.99998 16.45 1.99998 17C1.99998 20.86 5.13998 24 8.99998 24H13C16.52 24 19.44 21.39 19.93 18H24V19C24 19.16 24.04 19.31 24.11 19.45L24.7 20.62L23.98 19.91C23.59 19.52 22.96 19.52 22.57 19.91L16.91 25.56C16.52 25.96 16.52 26.59 16.91 26.98L19.51 29.59C18.71 30.98 18.1 32.46 17.68 34H14C13.45 34 13 34.45 13 35V40H10.16C9.60998 40 9.15998 40.45 9.15998 41V42.94C8.82998 43.11 8.49999 43.3 8.17999 43.51L6.49998 42.54C6.26998 42.4 5.99998 42.37 5.73998 42.44C5.48998 42.5 5.26998 42.67 5.12998 42.9L2.12998 48.1C1.85998 48.58 2.01998 49.19 2.49998 49.46L4.17998 50.44C4.16998 50.63 4.15998 50.82 4.15998 51C4.15998 51.18 4.16998 51.37 4.17998 51.56L2.49998 52.54C2.01998 52.81 1.85998 53.42 2.12998 53.9L5.12998 59.1C5.26998 59.33 5.48998 59.5 5.73998 59.56C5.99998 59.63 6.26998 59.6 6.49998 59.46L8.17999 58.49C8.49999 58.7 8.82998 58.89 9.15998 59.06V61C9.15998 61.55 9.60998 62 10.16 62H16.16C16.71 62 17.16 61.55 17.16 61V59.06C17.5 58.89 17.82 58.7 18.14 58.49L19.82 59.46C20.05 59.6 20.32 59.63 20.58 59.56C20.83 59.5 21.05 59.33 21.19 59.1L22.06 57.58L22.57 58.09C22.96 58.48 23.59 58.48 23.98 58.09L26.58 55.49C27.98 56.28 29.46 56.9 31 57.32V61C31 61.55 31.45 62 32 62H40C40.55 62 41 61.55 41 61V57.32C42.54 56.9 44.02 56.28 45.42 55.49L48.02 58.09C48.41 58.48 49.04 58.48 49.43 58.09L55.09 52.44C55.48 52.04 55.48 51.41 55.09 51.02L52.49 48.41C53.29 47.02 53.9 45.54 54.32 44H58C58.55 44 59 43.55 59 43V35C59 34.45 58.55 34 58 34H54.32C53.9 32.46 53.29 30.98 52.49 29.59L55.09 26.98C55.48 26.59 55.48 25.96 55.09 25.56L49.43 19.91C49.04 19.52 48.41 19.52 48.02 19.91L46.99 20.94C47 20.86 47 20.77 47 20.69V18H49.26C50.56 19.86 52.71 21 55 21C58.86 21 62 17.86 62 14C62 10.14 58.86 7 55 7ZM55 13C55.55 13 56 13.45 56 14C56 14.55 55.55 15 55 15C54.45 15 54 14.55 54 14C54 13.45 54.45 13 55 13ZM44 8C44.55 8 45 8.45 45 9V16C45 16.55 44.55 17 44 17C43.45 17 43 16.55 43 16V9C43 8.45 43.45 8 44 8ZM40 8C40.55 8 41 8.45 41 9V16C41 16.55 40.55 17 40 17C39.45 17 39 16.55 39 16V9C39 8.45 39.45 8 40 8ZM36 8C36.55 8 37 8.45 37 9V16C37 16.55 36.55 17 36 17C35.45 17 35 16.55 35 16V9C35 8.45 35.45 8 36 8ZM31 9C31 8.45 31.45 8 32 8C32.55 8 33 8.45 33 9V16C33 16.55 32.55 17 32 17C31.45 17 31 16.55 31 16V13.79V9ZM26 12C26 11.58 26.27 11.2 26.66 11.06C27.18 10.87 27.78 11.13 28.31 11.77C28.75 12.31 29 13.02 29 13.79V16V18C29 18.55 29.45 19 30 19C32.21 19 34 20.79 34 23V27C34 27.55 34.45 28 35 28C35.55 28 36 27.55 36 27V23C36 21.14 35.15 19.48 33.82 18.38C33.88 18.34 33.94 18.28 34 18.23C34.53 18.71 35.24 19 36 19C36.76 19 37.47 18.71 38 18.23C38.53 18.71 39.24 19 40 19C40.76 19 41.47 18.71 42 18.23C42.53 18.71 43.24 19 44 19C44.35 19 44.69 18.94 45 18.82V20.69C45 22.56 44.27 24.31 42.95 25.63L42.29 26.29C42.11 26.48 42 26.73 42 27V46.99C40.33 48.25 38.25 49 36 49C33.75 49 31.67 48.25 30 46.99V31.29V27C30 26.84 29.96 26.69 29.89 26.55L26 18.76V12ZM28.37 48.26C28.33 48.23 28.29 48.2 28.26 48.16C28.29 48.2 28.33 48.23 28.37 48.26ZM26 39C26 36.81 26.71 34.72 28 33.01V44.99C26.74 43.32 26 41.25 26 39ZM43.74 48.16C43.71 48.2 43.67 48.23 43.63 48.26C43.67 48.23 43.71 48.2 43.74 48.16ZM44 33.01C45.29 34.72 46 36.81 46 39C46 41.25 45.26 43.32 44 44.99V33.01ZM19.95 57.23L18.58 56.44C18.22 56.23 17.78 56.26 17.46 56.51C16.94 56.92 16.38 57.25 15.79 57.49C15.41 57.64 15.16 58.01 15.16 58.41V60H11.16V58.41C11.16 58.01 10.91 57.64 10.54 57.49C9.93998 57.25 9.37998 56.92 8.85998 56.51C8.53998 56.26 8.09998 56.23 7.73998 56.44L6.36998 57.23L4.36998 53.77L5.74998 52.97C6.09998 52.77 6.28998 52.37 6.23998 51.97C6.17998 51.59 6.15998 51.29 6.15998 51C6.15998 50.71 6.17998 50.41 6.23998 50.03C6.28998 49.63 6.09998 49.23 5.74998 49.03L4.36998 48.23L6.36998 44.77L7.73998 45.56C8.09998 45.77 8.53998 45.74 8.85998 45.49C9.37998 45.08 9.93998 44.75 10.54 44.51C10.91 44.36 11.16 43.99 11.16 43.59V42H13V43C13 43.55 13.45 44 14 44H17.68C18.1 45.54 18.71 47.02 19.51 48.41L17.15 50.78C17.04 48.67 15.3 47 13.16 47C10.95 47 9.15998 48.79 9.15998 51C9.15998 53.21 10.95 55 13.16 55C14.87 55 16.32 53.93 16.89 52.42C16.9 52.43 16.9 52.43 16.91 52.44L20.6 56.12L19.95 57.23ZM15.16 51C15.16 52.1 14.26 53 13.16 53C12.06 53 11.16 52.1 11.16 51C11.16 49.9 12.06 49 13.16 49C14.26 49 15.16 49.9 15.16 51Z" fill="black"/>
</svg>
